<?xml version="1.0" encoding="UTF-8"?>
<svg id="Livello_2" data-name="Livello 2" xmlns="http://www.w3.org/2000/svg" viewBox="0 0 1829.32 392.66">
  <defs>
    <style>
      .cls-1 {
        font-family: PlayfairDisplayRoman-Bold, 'Playfair Display';
        font-size: 292.7px;
        font-variation-settings: 'wght' 700;
        font-weight: 700;
      }

      .cls-1, .cls-2 {
        fill: #801624;
      }

      .cls-3 {
        fill: #edb3a2;
      }

      .cls-4 {
        fill: #de8b95;
      }

      .cls-5 {
        letter-spacing: .08em;
      }

      .cls-6 {
        letter-spacing: .07em;
      }
    </style>
  </defs>
  <g id="Livello_1-2" data-name="Livello 1">
    <text class="cls-1" transform="translate(356.75 285.92)"><tspan class="cls-5" x="0" y="0">ME</tspan><tspan class="cls-6" x="503.73" y="0">MO</tspan><tspan class="cls-5" x="1049.33" y="0">RA</tspan></text>
    <g>
      <path class="cls-3" d="M290.66,288.89c-1.88-.43-3.55-.64-5.02-.64-6.73,0-9.44,4.44-10.13,12.83.3,8.44-1.39,17.92-2.02,26.32-.87,6.42-3.33,12.59-7.29,17.15-3.96,4.56-9.41,7.53-16.26,7.55-5.48.01-13.91-3.37-19.25-1.81.37-2.02-.78-6.12-.78-7.8l4.21-24.87c0-2.19,4.86-8.05,7-8.73,7.65-2.44,25.39,7.74,25.41-5.76l-33.63-146.53c-.4-3.67-.09-7.37-.18-11.04.59-8.68,4.3-14.44,12.57-17.38-6.73-3.98-11.31-9.37-12.57-15.95-.02-15.56.74-31.27.74-46.73,0-17.99-8.47-35.42-27.2-37.95C146.95,20.15,87.69,11.99,28.39,4.38c-7.78-1-15.66-1.97-23.46-2.27-.73-.2-4.06-.88-4.21-.72C.51,3.54,1.37,6.11,0,7.91V.66c1.16-.05,2.35.06,3.51,0C5.65-.05,7.52-.05,9.14.66l22.18-.66c69.5,1.11,138.91,2.8,208.23,5.04,17.27.47,26.81,7.31,31.46,19.43,2.42,6.35,3.52,14.15,3.68,23.23-.7,25.52-1.08,51.02-1.12,76.51,0,3.02,0,6.05,0,9.07l28.64,124.45,1.52,6.62c1.03,4.49,3.28,12.95,3.47,17.14.41,8.85-11.31,7.7-16.54,7.38Z"/>
      <path class="cls-3" d="M239.8,112.23c1.99-.43,1.36,1.03,1.79,2.16,2.62,6.88,8.67,10.65,14.88,14.14-6.7,1.77-11.88,4.86-14.65,11.44-.79,1.88-.2,4.25-2.02,5.59-.27-11.07.01-22.25,0-33.33Z"/>
      <path class="cls-4" d="M241.29,105.56c-.04,1.11-.26,2.22-.51,3.33s.38-1.1,0,0l.51-3.33.13,50.82,34.65,146.59c-.01,6.33-3.62,9.05-9.76,8.75-6.02-.8-14.91-3.83-20.04.41-5.46,4.51-5.49,13.07-5.48,19.25,0,7.42-.42,14.37-1.55,21.6-.96,6.16-3.64,11.55-8.9,15.29-12.42,8.83-27.4-.57-40.7-.43.16-1.58.19-4,.27-5.6.41-7.62.82-23.23,5.69-28.7,5.31-5.98,12.65-1.06,19.3-.44,5.99.56,10.32,1.23,10.48-6.07l-34.14-151.38c0-8.82.11-17.66.03-26.47l1.95.68c2.33,4.09,4.34,8.33,6.01,12.7,2.27-7.08,5.89-11.8,13.46-13.14-7-4.14-12.12-10.55-14.02-18.51-1.13,3.75-2.38,7.74-5.71,10.19l-1.69-.61c.02-20.8,3.92-55.92-3.73-74.16-6.46-15.39-16.15-17-30.73-21.43L0,.65s21.56,1.3,29.43,2.28c61.11,7.65,122.23,15.31,183.31,23.18,18.75,2.42,29.25,19.71,29.25,37.6,0,13.81-.2,27.94-.71,41.85Z"/>
      <path class="cls-4" d="M191.26,140.48c4.76-2.88,5.26-8.39,6.9-13.03.25-.7.08-1.66,1.06-1.45,1.37,11.17,6.82,18.43,16.66,23.54-3.36,2.09-7.43,1.84-10.48,4.72-3.54,3.34-3.96,8.77-6.88,12.31-.89-6.59-4.49-11.57-7.25-17.39-.03-2.89,0-5.8,0-8.69Z"/>
      <path class="cls-2" d="M166.64,46.35c22.45,6.99,25.83,24.19,26.9,46.21.18,15.04-.87,82.98-.87,82.98h0l34.13,151.36c-.08,8.77-5.78,8.26-12.5,7.6l-9.01-2.07c-8.13-1.77-10.47,3.18-11.14,10.51l-2.17,25.03h0c-1.49,14.54-6.59,26.05-23.49,24.57L.34,340.46,0,.65h0l5.08,1.45"/>
    </g>
  </g>
</svg>